<?xml version="1.0" encoding="utf-8"?>
<!-- Generator: Adobe Illustrator 25.1.0, SVG Export Plug-In . SVG Version: 6.00 Build 0)  -->
<svg version="1.1" id="Layer_1" xmlns="http://www.w3.org/2000/svg" xmlns:xlink="http://www.w3.org/1999/xlink" x="0px" y="0px"
	 viewBox="0 0 200 200" style="enable-background:new 0 0 200 200;" xml:space="preserve">
<style type="text/css">
	.st0{fill:none;stroke:#767676;stroke-width:6;stroke-miterlimit:10;}
	.st1{fill:#767676;}
	.st2{fill:#FF8468;}
	.st3{fill:#0092FF;stroke:#3D3736;stroke-width:4;stroke-linecap:round;stroke-linejoin:round;stroke-miterlimit:10;}
	.st4{fill:#FFD6BC;stroke:#3D3736;stroke-width:4;stroke-linecap:round;stroke-linejoin:round;stroke-miterlimit:10;}
	.st5{fill:none;stroke:#DCDDDD;stroke-width:4;stroke-linecap:round;stroke-linejoin:round;stroke-miterlimit:10;}
	.st6{fill:#FFE258;stroke:#3D3736;stroke-width:4;stroke-linecap:round;stroke-linejoin:round;stroke-miterlimit:10;}
	.st7{fill:none;stroke:#3D3736;stroke-width:4;stroke-linecap:round;stroke-linejoin:round;stroke-miterlimit:10;}
	.st8{fill:#3D3736;}
	.st9{fill:#806A54;stroke:#3D3736;stroke-width:4;stroke-linecap:round;stroke-linejoin:round;stroke-miterlimit:10;}
	.st10{fill:#FFEEE2;stroke:#3D3736;stroke-width:4;stroke-linecap:round;stroke-linejoin:round;stroke-miterlimit:10;}
	.st11{fill:#FFD6D6;}
	.st12{fill:#FF8468;stroke:#3D3736;stroke-width:4;stroke-linecap:round;stroke-linejoin:round;stroke-miterlimit:10;}
	.st13{fill:#FFD6BC;}
	.st14{fill:#FFFFFF;stroke:#3D3736;stroke-width:4;stroke-linecap:round;stroke-linejoin:round;stroke-miterlimit:10;}
	.st15{fill:#FFD6BC;stroke:#3D3736;stroke-width:4;stroke-miterlimit:10;}
	.st16{fill:#FFEEE2;stroke:#3D3736;stroke-width:4;stroke-miterlimit:10;}
	.st17{fill:none;stroke:#DDDEDE;stroke-width:5;stroke-linecap:round;stroke-linejoin:round;stroke-miterlimit:10;}
	.st18{fill:#DCDDDD;stroke:#3D3736;stroke-width:4;stroke-linecap:round;stroke-linejoin:round;stroke-miterlimit:10;}
	.st19{fill:#8FC66A;stroke:#3D3736;stroke-width:4;stroke-linecap:round;stroke-linejoin:round;stroke-miterlimit:10;}
	.st20{fill:#737272;stroke:#3D3736;stroke-width:4;stroke-linecap:round;stroke-linejoin:round;stroke-miterlimit:10;}
	.st21{fill:#FFFF62;stroke:#3D3736;stroke-width:4;stroke-linecap:round;stroke-linejoin:round;stroke-miterlimit:10;}
	.st22{fill:#FFFFFF;}
	.st23{opacity:0.4;fill:#FFA13D;}
	.st24{fill:#DCDDDD;}
	.st25{fill:#FFA13D;}
	.st26{fill:#3D3433;}
</style>
<g>
	<circle class="st5" cx="100.17" cy="100.04" r="82.31"/>
	<path class="st14" d="M166.7,162.68H33.63c-10.18,0-18.51-8.33-18.51-18.51V55.86c0-10.18,8.33-18.51,18.51-18.51H166.7
		c10.18,0,18.51,8.33,18.51,18.51v88.31C185.21,154.35,176.88,162.68,166.7,162.68z"/>
	<path class="st18" d="M40.37,96.02c0,0-11.7,1.11-11.7,8.81s0,33.92,0,33.92s0.49,10.61,10.6,10.61l46.71-0.16
		c0,0,9.25-0.97,9.25-12.87v-30.2c0,0-1.95-10.11-9.85-10.11h-38.1"/>
	<path class="st18" d="M57.41,85.95H40.07c-6.6,0-12-5.4-12-12V62.69c0-6.6,5.4-12,12-12h17.34c6.6,0,12,5.4,12,12v11.26
		C69.41,80.55,64.01,85.95,57.41,85.95z"/>
	<path class="st18" d="M108.24,85.95H90.9c-6.6,0-12-5.4-12-12V62.69c0-6.6,5.4-12,12-12h17.34c6.6,0,12,5.4,12,12v11.26
		C120.24,80.55,114.84,85.95,108.24,85.95z"/>
	<path class="st18" d="M160.11,85.95h-17.34c-6.6,0-12-5.4-12-12V62.69c0-6.6,5.4-12,12-12h17.34c6.6,0,12,5.4,12,12v11.26
		C172.11,80.55,166.71,85.95,160.11,85.95z"/>
	<path class="st19" d="M51.61,56.56L40.54,63.6c-1.94,1.24-4.54,0.66-5.78-1.29l0,0c-1.24-1.94-0.66-4.54,1.29-5.78l11.07-7.04
		c1.94-1.24,4.54-0.66,5.78,1.29l0,0C54.14,52.72,53.56,55.33,51.61,56.56z"/>
	<path class="st19" d="M57.54,68l-13.11-0.48c-2.3-0.08-4.12-2.04-4.03-4.34v0c0.08-2.3,2.04-4.12,4.34-4.03l13.11,0.48
		c2.3,0.08,4.12,2.04,4.03,4.34l0,0C61.79,66.27,59.84,68.08,57.54,68z"/>
	<path class="st19" d="M52.92,71.03l-11.07,7.04c-1.94,1.24-4.54,0.66-5.78-1.29l0,0c-1.24-1.94-0.66-4.54,1.29-5.78l11.07-7.04
		c1.94-1.24,4.54-0.66,5.78,1.29l0,0C55.44,67.2,54.86,69.8,52.92,71.03z"/>
	<path class="st19" d="M57.01,80.93l-12.74,3.12c-2.24,0.55-4.51-0.83-5.06-3.07l0,0c-0.55-2.24,0.83-4.51,3.07-5.06l12.74-3.12
		c2.24-0.55,4.51,0.83,5.06,3.07v0C60.62,78.1,59.24,80.38,57.01,80.93z"/>
	<circle class="st14" cx="53.47" cy="58" r="3.32"/>
	<circle class="st14" cx="38.8" cy="68.85" r="3.32"/>
	<circle class="st14" cx="59.47" cy="74.19" r="3.32"/>
	
		<rect x="81.8" y="56.68" transform="matrix(0.3917 -0.9201 0.9201 0.3917 -8.1973 127.6291)" class="st20" width="21.24" height="26.68"/>
	
		<rect x="82.34" y="47.05" transform="matrix(0.6338 -0.7735 0.7735 0.6338 -12.6693 94.0184)" class="st20" width="21.24" height="26.68"/>
	
		<rect x="92.63" y="46.6" transform="matrix(0.8266 -0.5628 0.5628 0.8266 -15.8277 68.4988)" class="st20" width="21.24" height="26.68"/>
	<path class="st21" d="M152.15,57.69c0,0-3.43-2.64-5.69-2.07c-2.27,0.58-6.11,5.38-7.15,6.88c-1.04,1.5-2.3,0.6-2.3,0.6
		s-5.02-0.9-5.45,5.55c-0.43,6.45,5.4,10.29,6.43,10.39c1.03,0.11,4.77,2.53,5.94,4.72c1.17,2.19,7.32,3.88,12.2,0.91
		s5.93-7.59,7.95-7.57c2.02,0.02,5.7-3.81,6.45-8.31s-4.61-6.22-4.61-6.22s-5.4-3.73-5.46-4.61
		C160.39,57.1,155.76,55.58,152.15,57.69z"/>
	<path class="st22" d="M140.47,67.85c0,0-3.65-1.08-4.02,1.92s3.46,3.81,3.46,3.81s1.76-0.08,2.23-1.4c0,0,2.8-0.48,3.43-1.32
		s2.3-2.82,0.59-5.08C144.45,63.51,140.47,67.85,140.47,67.85z"/>
	<path class="st23" d="M153.46,62.19c0.13,0.2,3.18,4.62-0.33,11c0,0,3.69-2.19,4.1-5.5C157.63,64.38,153.46,62.19,153.46,62.19z"/>
	<path class="st14" d="M43.79,104.16c0,0-4.29-1.31-6.39,1.58c-2.1,2.89,1.1,7.61,1.1,7.61s-3.95,1.6-3.92,5.83
		c0.02,4.24,2.27,3.71,2.27,3.71s-4.12,4.05-3.03,6.18c1.09,2.13,2.89,3.67,5.59,4.01c0,0-0.81,4,0.16,5.19s2.87,2.91,5.8,2.43
		c0,0-1.85,5.56,1.59,6.62c0,0,4.04,1.9,6.94-1c0,0,2.41,3.22,4.4,2.84c0,0,4.07-1.35,4.93-3.59c0,0,2.51,2.06,4.79,1.86
		c0,0,3.05-1.55,3.66-3.98c0,0,3.29,1.99,4.82,1.32c0,0,3.24-1.47,3.67-3.56c0,0,5.27,0.19,6.21-1.36c0,0,2.84-4.64-0.92-7.83
		c0,0,4.18-1.39,3.96-5.49c0,0-0.62-4.03-2.72-4.27c0,0,3.52-2.38,3.56-5.41c0,0-0.53-4.7-5.7-4.56c0,0,1.8-2.19-1.13-6.37
		c0,0-1.44-2.02-4.83-1.25c0,0,0.53-3.62-0.78-5.88c0,0-5.04-3.87-8.68,1.24c0,0-1.21-3.79-4.13-3.09c0,0-4.05,2-4.33,4.3
		c0,0-2.36-2.32-4.16-2.3c0,0-3.51,1-4.51,3.4C52,102.33,46.68,96.29,43.79,104.16z"/>
	
		<ellipse transform="matrix(0.4447 -0.8957 0.8957 0.4447 -59.8778 124.0835)" class="st24" cx="70.14" cy="110.33" rx="3.74" ry="3.01"/>
	<ellipse transform="matrix(0.5 -0.866 0.866 0.5 -78.8161 101.8589)" class="st24" cx="48.8" cy="119.19" rx="3.01" ry="3.74"/>
	
		<ellipse transform="matrix(0.8266 -0.5628 0.5628 0.8266 -64.8963 59.1051)" class="st24" cx="63.47" cy="134.87" rx="3.01" ry="3.74"/>
	
		<ellipse transform="matrix(0.3271 -0.945 0.945 0.3271 -74.1022 154.5585)" class="st24" cx="71.47" cy="129.31" rx="3.74" ry="2.99"/>
	<path class="st18" d="M159.67,149.35h-42.55c-6.6,0-12-5.4-12-12v-29.6c0-6.6,5.4-12,12-12h42.55c6.6,0,12,5.4,12,12v29.6
		C171.67,143.95,166.27,149.35,159.67,149.35z"/>
	<path class="st25" d="M161.72,144.85h-46.5c-3.04,0-5.53-2.49-5.53-5.53v-33.27c0-3.04,2.49-5.53,5.53-5.53h46.5
		c3.04,0,5.53,2.49,5.53,5.53v33.27C167.25,142.36,164.76,144.85,161.72,144.85z"/>
	<path class="st19" d="M133.35,122l-15.78,6.45c0,0-4.7-15.92,9.72-21.65L133.35,122z"/>
	<path class="st19" d="M142.76,136.15l1.83-16.95c0,0,16.24,3.44,14.42,18.85L142.76,136.15z"/>
	<circle class="st21" cx="133.69" cy="112.85" r="4.78"/>
	<circle class="st21" cx="139.58" cy="135.78" r="4.78"/>
	<path class="st26" d="M100.17,187.26c-1.1,0-2-0.9-2-2v-6.75c0-1.1,0.9-2,2-2s2,0.9,2,2v6.75
		C102.17,186.36,101.27,187.26,100.17,187.26z"/>
	<path class="st26" d="M100.17,23.07c-1.1,0-2-0.9-2-2v-6.75c0-1.1,0.9-2,2-2s2,0.9,2,2v6.75
		C102.17,22.17,101.27,23.07,100.17,23.07z"/>
	<path class="st26" d="M132.56,30.4c-1.01-0.45-1.46-1.64-1.01-2.64l2.76-6.16c0.45-1.01,1.64-1.46,2.64-1.01
		c1.01,0.45,1.46,1.64,1.01,2.64l-2.76,6.16C134.75,30.41,133.57,30.86,132.56,30.4z"/>
	<path class="st26" d="M63.37,179.44c-1.01-0.45-1.46-1.64-1.01-2.64l2.76-6.16c0.45-1.01,1.64-1.46,2.64-1.01
		c1.01,0.45,1.46,1.64,1.01,2.64l-2.76,6.16C65.56,179.44,64.38,179.89,63.37,179.44z"/>
	<path class="st26" d="M67.97,30.64c-0.99,0.49-2.19,0.09-2.68-0.9l-3.01-6.04c-0.49-0.99-0.09-2.19,0.9-2.68
		c0.99-0.49,2.19-0.09,2.68,0.9l3.01,6.04C69.36,28.94,68.96,30.14,67.97,30.64z"/>
	<path class="st26" d="M137.21,179.02c-0.99,0.49-2.19,0.09-2.68-0.9l-3.01-6.04c-0.49-0.99-0.09-2.19,0.9-2.68
		c0.99-0.49,2.19-0.09,2.68,0.9l3.01,6.04C138.6,177.32,138.19,178.53,137.21,179.02z"/>
</g>
</svg>
