<?xml version="1.0" encoding="utf-8"?>
<!-- Generator: Adobe Illustrator 25.1.0, SVG Export Plug-In . SVG Version: 6.00 Build 0)  -->
<svg version="1.1" id="Layer_1" xmlns="http://www.w3.org/2000/svg" xmlns:xlink="http://www.w3.org/1999/xlink" x="0px" y="0px"
	 viewBox="0 0 200 200" style="enable-background:new 0 0 200 200;" xml:space="preserve">
<style type="text/css">
	.st0{fill:none;stroke:#767676;stroke-width:6;stroke-miterlimit:10;}
	.st1{fill:#767676;}
	.st2{fill:#FF8468;}
	.st3{fill:#0092FF;stroke:#3D3736;stroke-width:4;stroke-linecap:round;stroke-linejoin:round;stroke-miterlimit:10;}
	.st4{fill:#FFD6BC;stroke:#3D3736;stroke-width:4;stroke-linecap:round;stroke-linejoin:round;stroke-miterlimit:10;}
	.st5{fill:none;stroke:#DCDDDD;stroke-width:4;stroke-linecap:round;stroke-linejoin:round;stroke-miterlimit:10;}
	.st6{fill:#FFE258;stroke:#3D3736;stroke-width:4;stroke-linecap:round;stroke-linejoin:round;stroke-miterlimit:10;}
	.st7{fill:none;stroke:#3D3736;stroke-width:4;stroke-linecap:round;stroke-linejoin:round;stroke-miterlimit:10;}
	.st8{fill:#3D3736;}
	.st9{fill:#806A54;stroke:#3D3736;stroke-width:4;stroke-linecap:round;stroke-linejoin:round;stroke-miterlimit:10;}
	.st10{fill:#FFEEE2;stroke:#3D3736;stroke-width:4;stroke-linecap:round;stroke-linejoin:round;stroke-miterlimit:10;}
	.st11{fill:#FFD6D6;}
	.st12{fill:#FF8468;stroke:#3D3736;stroke-width:4;stroke-linecap:round;stroke-linejoin:round;stroke-miterlimit:10;}
	.st13{fill:#FFD6BC;}
	.st14{fill:#FFFFFF;stroke:#3D3736;stroke-width:4;stroke-linecap:round;stroke-linejoin:round;stroke-miterlimit:10;}
	.st15{fill:#FFD6BC;stroke:#3D3736;stroke-width:4;stroke-miterlimit:10;}
	.st16{fill:#FFEEE2;stroke:#3D3736;stroke-width:4;stroke-miterlimit:10;}
	.st17{fill:none;stroke:#DDDEDE;stroke-width:5;stroke-linecap:round;stroke-linejoin:round;stroke-miterlimit:10;}
	.st18{fill:#DCDDDD;stroke:#3D3736;stroke-width:4;stroke-linecap:round;stroke-linejoin:round;stroke-miterlimit:10;}
	.st19{fill:#8FC66A;stroke:#3D3736;stroke-width:4;stroke-linecap:round;stroke-linejoin:round;stroke-miterlimit:10;}
	.st20{fill:#737272;stroke:#3D3736;stroke-width:4;stroke-linecap:round;stroke-linejoin:round;stroke-miterlimit:10;}
	.st21{fill:#FFFF62;stroke:#3D3736;stroke-width:4;stroke-linecap:round;stroke-linejoin:round;stroke-miterlimit:10;}
	.st22{fill:#FFFFFF;}
	.st23{opacity:0.4;fill:#FFA13D;}
	.st24{fill:#DCDDDD;}
	.st25{fill:#FFA13D;}
	.st26{fill:#3D3433;}
</style>
<polyline class="st2" points="42.85,186.58 42.98,147.4 85.95,146.11 108.58,159.81 98.23,166.58 98.35,186.58 "/>
<polyline class="st3" points="106.11,186.05 106.11,160.3 95.36,153.07 107.64,131.62 127.75,139.93 158.04,141.77 160.63,141.77 
	160.63,186.62 "/>
<ellipse class="st4" cx="131.93" cy="149.89" rx="13.85" ry="12.1"/>
<polygon class="st4" points="112.02,137.49 95.22,126.67 82.17,144.83 97.58,154.33 "/>
<circle class="st4" cx="104.49" cy="106.86" r="10.1"/>
<circle class="st4" cx="174.7" cy="117.38" r="10.1"/>
<path class="st5" d="M80.53,70.71c0,2.31-0.95,4.42-2.47,5.94c-1.53,1.53-3.63,2.47-5.95,2.47H49.37c-4.63,0-8.42-3.78-8.42-8.41
	c0-2.32,0.95-4.43,2.47-5.95c1.11-1.11,2.53-1.91,4.12-2.27v-0.28c0-6.2,5.03-11.23,11.23-11.23c3.47,0,6.57,1.57,8.63,4.04
	c0.41-0.06,0.83-0.1,1.26-0.1c4.26,0,7.72,3.6,7.72,8.05c0,0.16,0,0.32-0.01,0.48C78.85,64.92,80.53,67.62,80.53,70.71z"/>
<circle class="st6" cx="100.18" cy="41.89" r="14.78"/>
<line class="st7" x1="100.18" y1="16.54" x2="100.18" y2="19"/>
<line class="st7" x1="100.18" y1="63.82" x2="100.18" y2="66.29"/>
<line class="st7" x1="75.31" y1="41.41" x2="77.77" y2="41.41"/>
<line class="st7" x1="82.59" y1="59" x2="84.33" y2="57.26"/>
<line class="st7" x1="116.02" y1="57.26" x2="117.77" y2="59"/>
<line class="st7" x1="122.59" y1="41.41" x2="125.05" y2="41.41"/>
<line class="st7" x1="117.77" y1="23.83" x2="116.02" y2="25.57"/>
<line class="st7" x1="82.59" y1="23.83" x2="84.33" y2="25.57"/>
<path class="st7" d="M96.21,44.55c0,0,4.44,3.77,7.93,0"/>
<circle class="st8" cx="96.53" cy="38" r="1.87"/>
<circle class="st8" cx="103.8" cy="38" r="1.87"/>
<path class="st5" d="M54.78,35.7c0,2.31-0.95,4.42-2.47,5.94c-1.53,1.53-3.63,2.47-5.95,2.47H23.62c-4.63,0-8.42-3.78-8.42-8.41
	c0-2.32,0.95-4.43,2.47-5.95c1.11-1.11,2.53-1.91,4.12-2.27V27.2c0-6.2,5.03-11.23,11.23-11.23c3.47,0,6.57,1.57,8.63,4.04
	c0.41-0.06,0.83-0.1,1.26-0.1c4.26,0,7.72,3.6,7.72,8.05c0,0.16,0,0.32-0.01,0.48C53.1,29.91,54.78,32.61,54.78,35.7z"/>
<path class="st5" d="M173.87,48.56c0,2.31-0.95,4.42-2.47,5.94c-1.53,1.53-3.63,2.47-5.95,2.47h-22.74c-4.63,0-8.42-3.78-8.42-8.41
	c0-2.32,0.95-4.43,2.47-5.95c1.11-1.11,2.53-1.91,4.12-2.27v-0.28c0-6.2,5.03-11.23,11.23-11.23c3.47,0,6.57,1.57,8.63,4.04
	c0.41-0.06,0.83-0.1,1.26-0.1c4.26,0,7.72,3.6,7.72,8.05c0,0.16,0,0.32-0.01,0.48C172.19,42.77,173.87,45.47,173.87,48.56z"/>
<polyline class="st7" points="35.66,182.64 42.85,145.1 84.22,143.35 "/>
<polyline class="st4" points="25.43,186.62 34.21,162.61 39.26,160.14 42.85,162.46 42.85,186.62 "/>
<polyline class="st7" points="86.36,146.89 110.36,160.89 98.23,165.89 96.45,166.62 "/>
<circle class="st4" cx="27.58" cy="117.38" r="10.13"/>
<circle class="st4" cx="42.03" cy="155.6" r="11.02"/>
<path class="st9" d="M38.46,104.08c0,0,8.38-7.13,9.09-10.11c0,0,3.56,5.95,7.89,3.54c0,0,19.27-11.95,19.92-13.44
	c0,0,13.59,13.37,31.56,15.94c-1.05-6.98-3.2-16.26-7.55-21.65c0,0-6.87-14.28-35.52-12.08c0,0-16.89-1.17-31.85,14.01
	c0,0-9.49,11.55-6.83,31.74C29.35,110.19,36.37,106.8,38.46,104.08z"/>
<path class="st10" d="M75.36,84.08c-0.65,1.49-19.92,13.44-19.92,13.44c-4.34,2.41-7.89-3.54-7.89-3.54
	c-0.71,2.98-9.09,10.11-9.09,10.11c-2.1,2.72-9.11,6.11-13.28,7.96c0.12,0.94,0.27,1.9,0.45,2.88c0,0,2.07,21.24,18.65,31.13
	c0,0,11.25,8.95,26.06,5.82c0,0,20.97-3.89,30.12-15.86c0,0,6.47-10.52,7.42-26.81c0,0-0.16-3.94-0.95-9.19
	C88.95,97.44,75.36,84.08,75.36,84.08z"/>
<circle class="st11" cx="46.88" cy="126.52" r="12.06"/>
<circle class="st11" cx="87.33" cy="121.17" r="12.06"/>
<path class="st12" d="M54.79,124.12l24.27-3.26c0,0,1.72,11.19-10.29,13.72C68.77,134.58,57.26,136.32,54.79,124.12z"/>
<path class="st12" d="M49.75,114.98c0,0,2.26-2.79,5.03-0.83"/>
<path class="st12" d="M76.05,111.38c0,0,2.43-2.44,5.43-0.73"/>
<circle class="st13" cx="65.82" cy="114.45" r="3.21"/>
<line class="st7" x1="98.42" y1="186.09" x2="98.29" y2="165.89"/>
<path class="st10" d="M138.8,89.26c-9.09-6.97-25.04-0.75-25.04-0.75c-4.73,8.53-11.56,12.48-16.5,14.3c0,0.23,0,0.46,0.01,0.69
	c0,0-2.81,19.84,5.24,29.37c0,0,9.68,16.37,27.69,18.74c0,0,27.48,4.06,38.64-15.61c0,0,5.01-6.45,6.82-14.61
	c-3.27-8.21-6.41-21.38-6.41-21.38C162.98,90.14,138.8,89.26,138.8,89.26z"/>
<path class="st9" d="M181.98,96.99c0,0,2.96-14.02-14.08-21.9c0,0-24-12.65-36.25-12.03c0,0-15.33-0.35-18.89,5.46
	c0,0-16.01,8.52-15.5,34.29c4.94-1.82,11.78-5.77,16.5-14.3c0,0,15.95-6.22,25.04,0.75c0,0,24.18,0.87,30.44,10.75
	c0,0,3.14,13.18,6.41,21.38c0.09-0.42,0.18-0.83,0.26-1.26C175.91,120.14,182.18,101.64,181.98,96.99z"/>
<circle class="st13" cx="136.33" cy="114.63" r="3.26"/>
<circle class="st11" cx="114.5" cy="121.18" r="11.97"/>
<circle class="st11" cx="155.36" cy="126.61" r="11.97"/>
<path class="st12" d="M123.13,120.66l24.32,2.9c0,0-1.13,11.26-13.38,10.72C134.06,134.28,122.48,133.09,123.13,120.66z"/>
<path class="st12" d="M120.96,110.58c0,0,3.01-1.95,5.04,0.77"/>
<path class="st12" d="M147.26,114.11c0,0,3.01-1.95,5.04,0.77"/>
<polyline class="st4" points="160.35,186.62 160.35,158.39 167.24,156.69 177.99,186.62 "/>
<ellipse class="st4" cx="159.92" cy="155.05" rx="11.13" ry="11.5"/>
</svg>
