<?xml version="1.0" encoding="utf-8"?>
<!-- Generator: Adobe Illustrator 25.1.0, SVG Export Plug-In . SVG Version: 6.00 Build 0)  -->
<svg version="1.1" id="Layer_1" xmlns="http://www.w3.org/2000/svg" xmlns:xlink="http://www.w3.org/1999/xlink" x="0px" y="0px"
	 viewBox="0 0 200 200" style="enable-background:new 0 0 200 200;" xml:space="preserve">
<style type="text/css">
	.st0{fill:none;stroke:#767676;stroke-width:6;stroke-miterlimit:10;}
	.st1{fill:#767676;}
	.st2{fill:#FF8468;}
	.st3{fill:#0092FF;stroke:#3D3736;stroke-width:4;stroke-linecap:round;stroke-linejoin:round;stroke-miterlimit:10;}
	.st4{fill:#FFD6BC;stroke:#3D3736;stroke-width:4;stroke-linecap:round;stroke-linejoin:round;stroke-miterlimit:10;}
	.st5{fill:none;stroke:#DCDDDD;stroke-width:4;stroke-linecap:round;stroke-linejoin:round;stroke-miterlimit:10;}
	.st6{fill:#FFE258;stroke:#3D3736;stroke-width:4;stroke-linecap:round;stroke-linejoin:round;stroke-miterlimit:10;}
	.st7{fill:none;stroke:#3D3736;stroke-width:4;stroke-linecap:round;stroke-linejoin:round;stroke-miterlimit:10;}
	.st8{fill:#3D3736;}
	.st9{fill:#806A54;stroke:#3D3736;stroke-width:4;stroke-linecap:round;stroke-linejoin:round;stroke-miterlimit:10;}
	.st10{fill:#FFEEE2;stroke:#3D3736;stroke-width:4;stroke-linecap:round;stroke-linejoin:round;stroke-miterlimit:10;}
	.st11{fill:#FFD6D6;}
	.st12{fill:#FF8468;stroke:#3D3736;stroke-width:4;stroke-linecap:round;stroke-linejoin:round;stroke-miterlimit:10;}
	.st13{fill:#FFD6BC;}
	.st14{fill:#FFFFFF;stroke:#3D3736;stroke-width:4;stroke-linecap:round;stroke-linejoin:round;stroke-miterlimit:10;}
	.st15{fill:#FFD6BC;stroke:#3D3736;stroke-width:4;stroke-miterlimit:10;}
	.st16{fill:#FFEEE2;stroke:#3D3736;stroke-width:4;stroke-miterlimit:10;}
	.st17{fill:none;stroke:#DDDEDE;stroke-width:5;stroke-linecap:round;stroke-linejoin:round;stroke-miterlimit:10;}
	.st18{fill:#DCDDDD;stroke:#3D3736;stroke-width:4;stroke-linecap:round;stroke-linejoin:round;stroke-miterlimit:10;}
	.st19{fill:#8FC66A;stroke:#3D3736;stroke-width:4;stroke-linecap:round;stroke-linejoin:round;stroke-miterlimit:10;}
	.st20{fill:#737272;stroke:#3D3736;stroke-width:4;stroke-linecap:round;stroke-linejoin:round;stroke-miterlimit:10;}
	.st21{fill:#FFFF62;stroke:#3D3736;stroke-width:4;stroke-linecap:round;stroke-linejoin:round;stroke-miterlimit:10;}
	.st22{fill:#FFFFFF;}
	.st23{opacity:0.4;fill:#FFA13D;}
	.st24{fill:#DCDDDD;}
	.st25{fill:#FFA13D;}
	.st26{fill:#3D3433;}
</style>
<g>
	<ellipse class="st5" cx="100.05" cy="126.85" rx="56.02" ry="56.79"/>
	<ellipse class="st5" cx="146.45" cy="124.98" rx="3.62" ry="3.67"/>
	<g>
		<g>
			<path class="st14" d="M153.94,185.15H46.2v-26.27c0-16.21,13.26-29.47,29.47-29.47h48.81c16.21,0,29.47,13.26,29.47,29.47V185.15
				z"/>
			<rect x="67.41" y="126.86" class="st3" width="65.31" height="58.28"/>
			<ellipse class="st15" cx="100.32" cy="133.52" rx="14.49" ry="13"/>
		</g>
		<polyline class="st12" points="111.69,161 99.96,177.64 105.9,178.4 108.71,184.32 121.11,165.62 		"/>
		<polyline class="st12" points="125.7,164.83 136.57,182.04 139.55,176.85 146.1,176.53 133.58,157.91 		"/>
		<polygon class="st6" points="138.23,167.78 131.97,167.84 129.41,173.57 123.95,170.49 118.88,174.17 115.69,168.77 
			109.46,169.42 109.39,163.16 103.67,160.6 106.75,155.14 103.07,150.07 108.47,146.88 107.82,140.65 114.08,140.58 116.64,134.86 
			122.09,137.94 127.17,134.26 130.36,139.66 136.59,139.01 136.65,145.27 142.38,147.83 139.3,153.28 142.98,158.36 137.58,161.55 
					"/>
		<path class="st7" d="M123.02,146.39c0,0-12.67,2.09-5.64,14.06c0,0,10.9,7.44,13.81-5.89"/>
		<circle class="st15" cx="48.49" cy="81.34" r="10.67"/>
		<circle class="st15" cx="151.69" cy="81.34" r="10.67"/>
		<path class="st9" d="M70.07,51.58c0,0,16.24-6.47,29.89-0.96c0,0,20.16-6.9,31.6,2.11c0,0,11.82,22.15,20.12,29.36
			c0.02-0.69,0.01-1.09,0.01-1.09c5.24-43.99-12.57-52.77-20.5-58.11s-31.19-8.95-51.07-6.66c-19.89,2.29-23.45,17.35-23.45,17.35
			c-15.34,31.25-8.18,49.42-8.18,49.42c0,0.14,0,0.27,0,0.41C54.05,78.23,63.63,67.68,70.07,51.58z"/>
		<path class="st16" d="M131.56,52.72c-11.45-9-31.6-2.11-31.6-2.11c-13.65-5.51-29.89,0.96-29.89,0.96
			c-6.44,16.1-16.02,26.65-21.58,31.82c-0.27,17.92,15.3,35.12,15.3,35.12c31.38,25.6,57.55,9.35,57.55,9.35
			c27.9-13.38,30.18-40.13,30.34-45.79C143.38,74.87,131.56,52.72,131.56,52.72z"/>
		<circle class="st13" cx="100.07" cy="87.14" r="4.21"/>
		<circle class="st11" cx="73.65" cy="96.23" r="15.24"/>
		<circle class="st11" cx="126.4" cy="96.23" r="15.24"/>
		<path class="st12" d="M89.71,97.87c0,0,0.7,9.88,10.02,9.88c0,0,10.35,0.19,10.35-9.82L89.71,97.87z"/>
		<circle class="st8" cx="82.42" cy="81.34" r="4.21"/>
		<circle class="st8" cx="117.71" cy="81.34" r="4.21"/>
		<path class="st7" d="M57.65,33.05c0,0,12.88,17.39,12.42,18.53"/>
	</g>
	<line class="st7" x1="20.16" y1="97.22" x2="34.24" y2="102.35"/>
	<line class="st7" x1="165.9" y1="150.27" x2="179.98" y2="155.39"/>
	<line class="st7" x1="20.17" y1="155.42" x2="34.23" y2="150.24"/>
	<line class="st7" x1="165.91" y1="102.37" x2="179.97" y2="97.2"/>
	<line class="st7" x1="170.12" y1="126.31" x2="185.11" y2="126.31"/>
	<line class="st7" x1="15.03" y1="126.31" x2="30.01" y2="126.31"/>
	<path class="st17" d="M178.47,134.34c0,0-2.62,6.64-6.64,6.64c0,0,6.64,3.05,6.64,7.15c0,0,1.84-7.15,6.64-7.15
		C185.11,140.98,178.47,138.25,178.47,134.34z"/>
	<path class="st17" d="M170.3,160.93c0,0-3.44,8.71-8.71,8.71c0,0,8.71,4,8.71,9.38c0,0,2.42-9.38,8.71-9.38
		C179.01,169.64,170.3,166.07,170.3,160.93z"/>
</g>
</svg>
